<svg xmlns="http://www.w3.org/2000/svg" width="1024" height="1024" viewBox="0 0 512 512">
  <defs>
    <radialGradient id="petalFill-8" cx="40%" cy="35%" r="70%">
      <stop offset="0%" stop-color="#ffffff"/>
      <stop offset="55%" stop-color="#f7f8fb"/>
      <stop offset="100%" stop-color="#e9edf2"/>
    </radialGradient>

    <linearGradient id="tealRim-8" x1="0%" y1="0%" x2="100%" y2="0%">
      <stop offset="0%" stop-color="rgba(20,184,166,0.0)"/>
      <stop offset="60%" stop-color="rgba(20,184,166,0.077)"/>
      <stop offset="100%" stop-color="rgba(20,184,166,0.197)"/>
    </linearGradient>

    <filter id="inner-8" x="-20%" y="-20%" width="140%" height="140%">
      <feGaussianBlur in="SourceAlpha" stdDeviation="4" result="blur"/>
      <feOffset dy="3" dx="-1" result="off"/>
      <feComposite in="off" in2="blur" operator="arithmetic" k2="-1" k3="1" result="innerShadow"/>
      <feColorMatrix in="innerShadow" type="matrix"
        values="0 0 0 0 0
                0 0 0 0 0.02
                0 0 0 0 0.04
                0 0 0 .55 0" result="innerTint"/>
      <feComposite in="innerTint" in2="SourceGraphic" operator="over"/>
    </filter>

    <radialGradient id="spec-8" cx="35%" cy="28%" r="22%">
      <stop offset="0%" stop-color="rgba(255,255,255,.85)"/>
      <stop offset="100%" stop-color="rgba(255,255,255,0)"/>
    </radialGradient>
  </defs>

  <g transform="rotate(0.3686208511450726 256 256)">
    <path d="M256 28.07433999100029
           C 314.2651180250815 64.64118700563753, 346.35940999266853 127.03976298638622, 386.35196950401365 219.82858730788465
           C 395.56486078896535 257.5414868724163, 379.5223414864788 319.55363205333276, 346.57253608493534 366.90359528578045
           C 314.7611473715783 428.5902873044309, 228.23245150533418 449.8825427469692, 172.24048370116094 435.7252048201923
           C 120.63291071663123 429.2708201751534, 99.92532201209815 387.9896193677197, 109.01473012278905 311.0830323347872
           C 115.72240609510554 240.26506377625967, 163.68469257532524 142.9979816540427, 256 28.07433999100029 Z" fill="url(#petalFill-8)" filter="url(#inner-8)"/>
    <path d="M256 28.07433999100029
           C 314.2651180250815 64.64118700563753, 346.35940999266853 127.03976298638622, 386.35196950401365 219.82858730788465
           C 395.56486078896535 257.5414868724163, 379.5223414864788 319.55363205333276, 346.57253608493534 366.90359528578045" fill="none" stroke="url(#tealRim-8)" stroke-width="10" stroke-linecap="round" opacity="0.95"/>
    <ellipse cx="208.2235275676054" cy="156.4276897843577" rx="58.130341908446596" ry="53.88840363626589" fill="url(#spec-8)"/>
    <path d="M256 28.07433999100029
           C 314.2651180250815 64.64118700563753, 346.35940999266853 127.03976298638622, 386.35196950401365 219.82858730788465
           C 395.56486078896535 257.5414868724163, 379.5223414864788 319.55363205333276, 346.57253608493534 366.90359528578045
           C 314.7611473715783 428.5902873044309, 228.23245150533418 449.8825427469692, 172.24048370116094 435.7252048201923
           C 120.63291071663123 429.2708201751534, 99.92532201209815 387.9896193677197, 109.01473012278905 311.0830323347872
           C 115.72240609510554 240.26506377625967, 163.68469257532524 142.9979816540427, 256 28.07433999100029 Z" fill="none" stroke="rgba(0,0,0,.06)" stroke-width="2"/>
  </g>
</svg>