<svg xmlns="http://www.w3.org/2000/svg" width="1024" height="1024" viewBox="0 0 512 512">
  <defs>
    <radialGradient id="petalFill-6" cx="40%" cy="35%" r="70%">
      <stop offset="0%" stop-color="#ffffff"/>
      <stop offset="55%" stop-color="#f7f8fb"/>
      <stop offset="100%" stop-color="#e9edf2"/>
    </radialGradient>

    <linearGradient id="tealRim-6" x1="0%" y1="0%" x2="100%" y2="0%">
      <stop offset="0%" stop-color="rgba(20,184,166,0.0)"/>
      <stop offset="60%" stop-color="rgba(20,184,166,0.082)"/>
      <stop offset="100%" stop-color="rgba(20,184,166,0.209)"/>
    </linearGradient>

    <filter id="inner-6" x="-20%" y="-20%" width="140%" height="140%">
      <feGaussianBlur in="SourceAlpha" stdDeviation="4" result="blur"/>
      <feOffset dy="3" dx="-1" result="off"/>
      <feComposite in="off" in2="blur" operator="arithmetic" k2="-1" k3="1" result="innerShadow"/>
      <feColorMatrix in="innerShadow" type="matrix"
        values="0 0 0 0 0
                0 0 0 0 0.02
                0 0 0 0 0.04
                0 0 0 .55 0" result="innerTint"/>
      <feComposite in="innerTint" in2="SourceGraphic" operator="over"/>
    </filter>

    <radialGradient id="spec-6" cx="35%" cy="28%" r="22%">
      <stop offset="0%" stop-color="rgba(255,255,255,.85)"/>
      <stop offset="100%" stop-color="rgba(255,255,255,0)"/>
    </radialGradient>
  </defs>

  <g transform="rotate(4.777804273941122 256 256)">
    <path d="M256 26.451837184333506
           C 312.56332466517586 69.11537431708172, 359.92862958832484 138.8340588774487, 392.62798104132355 197.35418149366475
           C 411.755926416981 274.1872178972142, 407.2926015129063 328.32226420618053, 347.4739373058965 357.7916393040382
           C 293.73204314711137 409.2318942646773, 247.04788426481252 441.72664105042816, 195.87726370389836 452.05287098838545
           C 145.58154301533114 425.90260034773974, 100.5736048482691 358.3383336208694, 113.79381583117554 311.3426647067485
           C 119.99815669960051 226.5204021689066, 179.864674793384 162.55098822071656, 256 26.451837184333506 Z" fill="url(#petalFill-6)" filter="url(#inner-6)"/>
    <path d="M256 26.451837184333506
           C 312.56332466517586 69.11537431708172, 359.92862958832484 138.8340588774487, 392.62798104132355 197.35418149366475
           C 411.755926416981 274.1872178972142, 407.2926015129063 328.32226420618053, 347.4739373058965 357.7916393040382" fill="none" stroke="url(#tealRim-6)" stroke-width="10" stroke-linecap="round" opacity="0.95"/>
    <ellipse cx="202.51080354593748" cy="140.7869243399989" rx="72.1325558458239" ry="37.08795079394382" fill="url(#spec-6)"/>
    <path d="M256 26.451837184333506
           C 312.56332466517586 69.11537431708172, 359.92862958832484 138.8340588774487, 392.62798104132355 197.35418149366475
           C 411.755926416981 274.1872178972142, 407.2926015129063 328.32226420618053, 347.4739373058965 357.7916393040382
           C 293.73204314711137 409.2318942646773, 247.04788426481252 441.72664105042816, 195.87726370389836 452.05287098838545
           C 145.58154301533114 425.90260034773974, 100.5736048482691 358.3383336208694, 113.79381583117554 311.3426647067485
           C 119.99815669960051 226.5204021689066, 179.864674793384 162.55098822071656, 256 26.451837184333506 Z" fill="none" stroke="rgba(0,0,0,.06)" stroke-width="2"/>
  </g>
</svg>