<svg xmlns="http://www.w3.org/2000/svg" width="1024" height="1024" viewBox="0 0 512 512">
  <defs>
    <radialGradient id="petalFill-4" cx="40%" cy="35%" r="70%">
      <stop offset="0%" stop-color="#ffffff"/>
      <stop offset="55%" stop-color="#f7f8fb"/>
      <stop offset="100%" stop-color="#e9edf2"/>
    </radialGradient>

    <linearGradient id="tealRim-4" x1="0%" y1="0%" x2="100%" y2="0%">
      <stop offset="0%" stop-color="rgba(20,184,166,0.0)"/>
      <stop offset="60%" stop-color="rgba(20,184,166,0.081)"/>
      <stop offset="100%" stop-color="rgba(20,184,166,0.175)"/>
    </linearGradient>

    <filter id="inner-4" x="-20%" y="-20%" width="140%" height="140%">
      <feGaussianBlur in="SourceAlpha" stdDeviation="4" result="blur"/>
      <feOffset dy="3" dx="-1" result="off"/>
      <feComposite in="off" in2="blur" operator="arithmetic" k2="-1" k3="1" result="innerShadow"/>
      <feColorMatrix in="innerShadow" type="matrix"
        values="0 0 0 0 0
                0 0 0 0 0.02
                0 0 0 0 0.04
                0 0 0 .55 0" result="innerTint"/>
      <feComposite in="innerTint" in2="SourceGraphic" operator="over"/>
    </filter>

    <radialGradient id="spec-4" cx="35%" cy="28%" r="22%">
      <stop offset="0%" stop-color="rgba(255,255,255,.85)"/>
      <stop offset="100%" stop-color="rgba(255,255,255,0)"/>
    </radialGradient>
  </defs>

  <g transform="rotate(-3.6421912749672156 256 256)">
    <path d="M256 31.313909769549646
           C 312.8386114107313 77.36112706639523, 375.8362069307738 139.70021182047674, 370.17478376886726 190.4861563805679
           C 400.89270952220943 249.98451984498377, 384.96066715317926 340.0794724123536, 356.0688382556253 369.87690733474915
           C 313.7107660332188 421.68527604306803, 240.6517551251365 439.502651171343, 204.57629163366713 429.16268350511126
           C 119.92964949615337 426.0720513561257, 115.61526169535277 358.73487002313675, 104.62106831652514 310.62524382500504
           C 125.73385330061538 228.08073037607704, 176.62844181850926 140.90503697431308, 256 31.313909769549646 Z" fill="url(#petalFill-4)" filter="url(#inner-4)"/>
    <path d="M256 31.313909769549646
           C 312.8386114107313 77.36112706639523, 375.8362069307738 139.70021182047674, 370.17478376886726 190.4861563805679
           C 400.89270952220943 249.98451984498377, 384.96066715317926 340.0794724123536, 356.0688382556253 369.87690733474915" fill="none" stroke="url(#tealRim-4)" stroke-width="10" stroke-linecap="round" opacity="0.95"/>
    <ellipse cx="203.57385191467472" cy="144.74700243870387" rx="67.33432808525066" ry="46.18221788008379" fill="url(#spec-4)"/>
    <path d="M256 31.313909769549646
           C 312.8386114107313 77.36112706639523, 375.8362069307738 139.70021182047674, 370.17478376886726 190.4861563805679
           C 400.89270952220943 249.98451984498377, 384.96066715317926 340.0794724123536, 356.0688382556253 369.87690733474915
           C 313.7107660332188 421.68527604306803, 240.6517551251365 439.502651171343, 204.57629163366713 429.16268350511126
           C 119.92964949615337 426.0720513561257, 115.61526169535277 358.73487002313675, 104.62106831652514 310.62524382500504
           C 125.73385330061538 228.08073037607704, 176.62844181850926 140.90503697431308, 256 31.313909769549646 Z" fill="none" stroke="rgba(0,0,0,.06)" stroke-width="2"/>
  </g>
</svg>