<svg xmlns="http://www.w3.org/2000/svg" width="1024" height="1024" viewBox="0 0 512 512">
  <defs>
    <radialGradient id="petalFill-2" cx="40%" cy="35%" r="70%">
      <stop offset="0%" stop-color="#ffffff"/>
      <stop offset="55%" stop-color="#f7f8fb"/>
      <stop offset="100%" stop-color="#e9edf2"/>
    </radialGradient>

    <linearGradient id="tealRim-2" x1="0%" y1="0%" x2="100%" y2="0%">
      <stop offset="0%" stop-color="rgba(20,184,166,0.0)"/>
      <stop offset="60%" stop-color="rgba(20,184,166,0.074)"/>
      <stop offset="100%" stop-color="rgba(20,184,166,0.185)"/>
    </linearGradient>

    <filter id="inner-2" x="-20%" y="-20%" width="140%" height="140%">
      <feGaussianBlur in="SourceAlpha" stdDeviation="4" result="blur"/>
      <feOffset dy="3" dx="-1" result="off"/>
      <feComposite in="off" in2="blur" operator="arithmetic" k2="-1" k3="1" result="innerShadow"/>
      <feColorMatrix in="innerShadow" type="matrix"
        values="0 0 0 0 0
                0 0 0 0 0.02
                0 0 0 0 0.04
                0 0 0 .55 0" result="innerTint"/>
      <feComposite in="innerTint" in2="SourceGraphic" operator="over"/>
    </filter>

    <radialGradient id="spec-2" cx="35%" cy="28%" r="22%">
      <stop offset="0%" stop-color="rgba(255,255,255,.85)"/>
      <stop offset="100%" stop-color="rgba(255,255,255,0)"/>
    </radialGradient>
  </defs>

  <g transform="rotate(2.707940067962314 256 256)">
    <path d="M256 35.168466690263195
           C 311.5258696594971 68.62822800529786, 362.03751886732033 127.2897395182091, 382.1115039478374 201.41661212905436
           C 404.33029364026663 263.7444401423627, 404.06072843469775 338.5684395911415, 367.79413937958157 381.10030611140155
           C 329.6926015522671 418.71062286910603, 231.5571050905983 450.3880734663088, 181.35841548348358 422.0917335999652
           C 112.16783726014997 424.46284054752454, 110.09544516350267 379.8578031080595, 122.62982387797456 321.6889316864435
           C 111.63688011179732 251.00204188468817, 172.74205311641086 148.63056391813046, 256 35.168466690263195 Z" fill="url(#petalFill-2)" filter="url(#inner-2)"/>
    <path d="M256 35.168466690263195
           C 311.5258696594971 68.62822800529786, 362.03751886732033 127.2897395182091, 382.1115039478374 201.41661212905436
           C 404.33029364026663 263.7444401423627, 404.06072843469775 338.5684395911415, 367.79413937958157 381.10030611140155" fill="none" stroke="url(#tealRim-2)" stroke-width="10" stroke-linecap="round" opacity="0.95"/>
    <ellipse cx="200.58545834209443" cy="150.00252228778206" rx="75.08779741091911" ry="41.54259160940277" fill="url(#spec-2)"/>
    <path d="M256 35.168466690263195
           C 311.5258696594971 68.62822800529786, 362.03751886732033 127.2897395182091, 382.1115039478374 201.41661212905436
           C 404.33029364026663 263.7444401423627, 404.06072843469775 338.5684395911415, 367.79413937958157 381.10030611140155
           C 329.6926015522671 418.71062286910603, 231.5571050905983 450.3880734663088, 181.35841548348358 422.0917335999652
           C 112.16783726014997 424.46284054752454, 110.09544516350267 379.8578031080595, 122.62982387797456 321.6889316864435
           C 111.63688011179732 251.00204188468817, 172.74205311641086 148.63056391813046, 256 35.168466690263195 Z" fill="none" stroke="rgba(0,0,0,.06)" stroke-width="2"/>
  </g>
</svg>