<svg xmlns="http://www.w3.org/2000/svg" width="1024" height="1024" viewBox="0 0 512 512">
  <defs>
    <radialGradient id="petalFill-3" cx="40%" cy="35%" r="70%">
      <stop offset="0%" stop-color="#ffffff"/>
      <stop offset="55%" stop-color="#f7f8fb"/>
      <stop offset="100%" stop-color="#e9edf2"/>
    </radialGradient>

    <linearGradient id="tealRim-3" x1="0%" y1="0%" x2="100%" y2="0%">
      <stop offset="0%" stop-color="rgba(20,184,166,0.0)"/>
      <stop offset="60%" stop-color="rgba(20,184,166,0.091)"/>
      <stop offset="100%" stop-color="rgba(20,184,166,0.232)"/>
    </linearGradient>

    <filter id="inner-3" x="-20%" y="-20%" width="140%" height="140%">
      <feGaussianBlur in="SourceAlpha" stdDeviation="4" result="blur"/>
      <feOffset dy="3" dx="-1" result="off"/>
      <feComposite in="off" in2="blur" operator="arithmetic" k2="-1" k3="1" result="innerShadow"/>
      <feColorMatrix in="innerShadow" type="matrix"
        values="0 0 0 0 0
                0 0 0 0 0.02
                0 0 0 0 0.04
                0 0 0 .55 0" result="innerTint"/>
      <feComposite in="innerTint" in2="SourceGraphic" operator="over"/>
    </filter>

    <radialGradient id="spec-3" cx="35%" cy="28%" r="22%">
      <stop offset="0%" stop-color="rgba(255,255,255,.85)"/>
      <stop offset="100%" stop-color="rgba(255,255,255,0)"/>
    </radialGradient>
  </defs>

  <g transform="rotate(4.992315052082164 256 256)">
    <path d="M256 26.56713390986125
           C 311.2873139605408 58.75104828405331, 361.13341918657903 120.38842888484609, 398.5530957518642 214.10254881079345
           C 415.10161528807794 270.0172627030835, 394.90800830563103 334.10074748887007, 331.70781534877045 379.2563851682099
           C 311.1013747514429 427.6858842314261, 252.67121097909887 443.7792988522649, 197.85886229396158 440.94721140516896
           C 115.1268809734955 419.27813602713826, 77.84601619033134 369.2703602094766, 103.15399520755004 322.5155484424361
           C 128.81256020664046 236.3887603490173, 176.8545820309011 156.9135601402381, 256 26.56713390986125 Z" fill="url(#petalFill-3)" filter="url(#inner-3)"/>
    <path d="M256 26.56713390986125
           C 311.2873139605408 58.75104828405331, 361.13341918657903 120.38842888484609, 398.5530957518642 214.10254881079345
           C 415.10161528807794 270.0172627030835, 394.90800830563103 334.10074748887007, 331.70781534877045 379.2563851682099" fill="none" stroke="url(#tealRim-3)" stroke-width="10" stroke-linecap="round" opacity="0.95"/>
    <ellipse cx="214.80768950901683" cy="147.14568101642604" rx="60.707612806306294" ry="38.35441591086756" fill="url(#spec-3)"/>
    <path d="M256 26.56713390986125
           C 311.2873139605408 58.75104828405331, 361.13341918657903 120.38842888484609, 398.5530957518642 214.10254881079345
           C 415.10161528807794 270.0172627030835, 394.90800830563103 334.10074748887007, 331.70781534877045 379.2563851682099
           C 311.1013747514429 427.6858842314261, 252.67121097909887 443.7792988522649, 197.85886229396158 440.94721140516896
           C 115.1268809734955 419.27813602713826, 77.84601619033134 369.2703602094766, 103.15399520755004 322.5155484424361
           C 128.81256020664046 236.3887603490173, 176.8545820309011 156.9135601402381, 256 26.56713390986125 Z" fill="none" stroke="rgba(0,0,0,.06)" stroke-width="2"/>
  </g>
</svg>