<svg xmlns="http://www.w3.org/2000/svg" width="1024" height="1024" viewBox="0 0 512 512">
  <defs>
    <radialGradient id="petalFill-7" cx="40%" cy="35%" r="70%">
      <stop offset="0%" stop-color="#ffffff"/>
      <stop offset="55%" stop-color="#f7f8fb"/>
      <stop offset="100%" stop-color="#e9edf2"/>
    </radialGradient>

    <linearGradient id="tealRim-7" x1="0%" y1="0%" x2="100%" y2="0%">
      <stop offset="0%" stop-color="rgba(20,184,166,0.0)"/>
      <stop offset="60%" stop-color="rgba(20,184,166,0.100)"/>
      <stop offset="100%" stop-color="rgba(20,184,166,0.190)"/>
    </linearGradient>

    <filter id="inner-7" x="-20%" y="-20%" width="140%" height="140%">
      <feGaussianBlur in="SourceAlpha" stdDeviation="4" result="blur"/>
      <feOffset dy="3" dx="-1" result="off"/>
      <feComposite in="off" in2="blur" operator="arithmetic" k2="-1" k3="1" result="innerShadow"/>
      <feColorMatrix in="innerShadow" type="matrix"
        values="0 0 0 0 0
                0 0 0 0 0.02
                0 0 0 0 0.04
                0 0 0 .55 0" result="innerTint"/>
      <feComposite in="innerTint" in2="SourceGraphic" operator="over"/>
    </filter>

    <radialGradient id="spec-7" cx="35%" cy="28%" r="22%">
      <stop offset="0%" stop-color="rgba(255,255,255,.85)"/>
      <stop offset="100%" stop-color="rgba(255,255,255,0)"/>
    </radialGradient>
  </defs>

  <g transform="rotate(0.1932011025003888 256 256)">
    <path d="M256 30.642681201846663
           C 301.0208755099228 73.94684316555937, 354.35746811622505 136.97829595878716, 398.72447501045116 206.35604541728424
           C 394.0887471169095 260.173454532266, 380.63020775312503 335.824381053039, 360.84133375620377 368.3579943108402
           C 324.74437338620265 402.5019784855438, 265.4992105238089 457.63445034716926, 210.46655075884195 453.43639171521846
           C 131.0370546687005 430.67061720368474, 77.49196109916332 369.17477000086205, 118.88503760892479 315.68650243873554
           C 129.34538589044027 238.94101573062815, 169.72692006272675 148.14510959334876, 256 30.642681201846663 Z" fill="url(#petalFill-7)" filter="url(#inner-7)"/>
    <path d="M256 30.642681201846663
           C 301.0208755099228 73.94684316555937, 354.35746811622505 136.97829595878716, 398.72447501045116 206.35604541728424
           C 394.0887471169095 260.173454532266, 380.63020775312503 335.824381053039, 360.84133375620377 368.3579943108402" fill="none" stroke="url(#tealRim-7)" stroke-width="10" stroke-linecap="round" opacity="0.95"/>
    <ellipse cx="213.7160203577992" cy="159.51149718892796" rx="66.74078469901309" ry="46.20354380878766" fill="url(#spec-7)"/>
    <path d="M256 30.642681201846663
           C 301.0208755099228 73.94684316555937, 354.35746811622505 136.97829595878716, 398.72447501045116 206.35604541728424
           C 394.0887471169095 260.173454532266, 380.63020775312503 335.824381053039, 360.84133375620377 368.3579943108402
           C 324.74437338620265 402.5019784855438, 265.4992105238089 457.63445034716926, 210.46655075884195 453.43639171521846
           C 131.0370546687005 430.67061720368474, 77.49196109916332 369.17477000086205, 118.88503760892479 315.68650243873554
           C 129.34538589044027 238.94101573062815, 169.72692006272675 148.14510959334876, 256 30.642681201846663 Z" fill="none" stroke="rgba(0,0,0,.06)" stroke-width="2"/>
  </g>
</svg>