<svg xmlns="http://www.w3.org/2000/svg" width="1024" height="1024" viewBox="0 0 512 512">
  <defs>
    <radialGradient id="petalFill-5" cx="40%" cy="35%" r="70%">
      <stop offset="0%" stop-color="#ffffff"/>
      <stop offset="55%" stop-color="#f7f8fb"/>
      <stop offset="100%" stop-color="#e9edf2"/>
    </radialGradient>

    <linearGradient id="tealRim-5" x1="0%" y1="0%" x2="100%" y2="0%">
      <stop offset="0%" stop-color="rgba(20,184,166,0.0)"/>
      <stop offset="60%" stop-color="rgba(20,184,166,0.093)"/>
      <stop offset="100%" stop-color="rgba(20,184,166,0.212)"/>
    </linearGradient>

    <filter id="inner-5" x="-20%" y="-20%" width="140%" height="140%">
      <feGaussianBlur in="SourceAlpha" stdDeviation="4" result="blur"/>
      <feOffset dy="3" dx="-1" result="off"/>
      <feComposite in="off" in2="blur" operator="arithmetic" k2="-1" k3="1" result="innerShadow"/>
      <feColorMatrix in="innerShadow" type="matrix"
        values="0 0 0 0 0
                0 0 0 0 0.02
                0 0 0 0 0.04
                0 0 0 .55 0" result="innerTint"/>
      <feComposite in="innerTint" in2="SourceGraphic" operator="over"/>
    </filter>

    <radialGradient id="spec-5" cx="35%" cy="28%" r="22%">
      <stop offset="0%" stop-color="rgba(255,255,255,.85)"/>
      <stop offset="100%" stop-color="rgba(255,255,255,0)"/>
    </radialGradient>
  </defs>

  <g transform="rotate(-1.7134789976685205 256 256)">
    <path d="M256 29.567912821452218
           C 305.10669519223853 62.6266477689123, 367.09352621970135 136.43133501336456, 393.8060683916098 204.47665762580536
           C 402.9915914353504 260.8134611497958, 390.29393618967447 331.0646734731441, 349.35832712936013 356.7035145808064
           C 298.00696416788577 423.6530177266732, 262.8969806329289 454.7030265455759, 201.2923559891513 431.6528381284098
           C 136.71253165338712 411.28794627507443, 98.18898149622565 365.16432442890545, 88.0984790722475 320.6965697878262
           C 105.88669837987985 225.2868737388639, 186.7758999147584 148.43552488537796, 256 29.567912821452218 Z" fill="url(#petalFill-5)" filter="url(#inner-5)"/>
    <path d="M256 29.567912821452218
           C 305.10669519223853 62.6266477689123, 367.09352621970135 136.43133501336456, 393.8060683916098 204.47665762580536
           C 402.9915914353504 260.8134611497958, 390.29393618967447 331.0646734731441, 349.35832712936013 356.7035145808064" fill="none" stroke="url(#tealRim-5)" stroke-width="10" stroke-linecap="round" opacity="0.95"/>
    <ellipse cx="201.66087653289426" cy="152.5561616291156" rx="62.06331246294541" ry="51.55555945943108" fill="url(#spec-5)"/>
    <path d="M256 29.567912821452218
           C 305.10669519223853 62.6266477689123, 367.09352621970135 136.43133501336456, 393.8060683916098 204.47665762580536
           C 402.9915914353504 260.8134611497958, 390.29393618967447 331.0646734731441, 349.35832712936013 356.7035145808064
           C 298.00696416788577 423.6530177266732, 262.8969806329289 454.7030265455759, 201.2923559891513 431.6528381284098
           C 136.71253165338712 411.28794627507443, 98.18898149622565 365.16432442890545, 88.0984790722475 320.6965697878262
           C 105.88669837987985 225.2868737388639, 186.7758999147584 148.43552488537796, 256 29.567912821452218 Z" fill="none" stroke="rgba(0,0,0,.06)" stroke-width="2"/>
  </g>
</svg>