<svg xmlns="http://www.w3.org/2000/svg" width="1024" height="1024" viewBox="0 0 512 512">
  <defs>
    <radialGradient id="petalFill-101" cx="40%" cy="35%" r="70%">
      <stop offset="0%" stop-color="#ffffff"/>
      <stop offset="55%" stop-color="#f7f8fb"/>
      <stop offset="100%" stop-color="#e9edf2"/>
    </radialGradient>

    <linearGradient id="tealRim-101" x1="0%" y1="0%" x2="100%" y2="0%">
      <stop offset="0%" stop-color="rgba(20,184,166,0.0)"/>
      <stop offset="60%" stop-color="rgba(20,184,166,0.096)"/>
      <stop offset="100%" stop-color="rgba(20,184,166,0.229)"/>
    </linearGradient>

    <filter id="inner-101" x="-20%" y="-20%" width="140%" height="140%">
      <feGaussianBlur in="SourceAlpha" stdDeviation="4" result="blur"/>
      <feOffset dy="3" dx="-1" result="off"/>
      <feComposite in="off" in2="blur" operator="arithmetic" k2="-1" k3="1" result="innerShadow"/>
      <feColorMatrix in="innerShadow" type="matrix"
        values="0 0 0 0 0
                0 0 0 0 0.02
                0 0 0 0 0.04
                0 0 0 .55 0" result="innerTint"/>
      <feComposite in="innerTint" in2="SourceGraphic" operator="over"/>
    </filter>

    <radialGradient id="spec-101" cx="35%" cy="28%" r="22%">
      <stop offset="0%" stop-color="rgba(255,255,255,.85)"/>
      <stop offset="100%" stop-color="rgba(255,255,255,0)"/>
    </radialGradient>
  </defs>

  <g transform="rotate(2.2255002088378433 256 256)">
    <path d="M256 34.501460280598934
           C 313.7690371566082 64.09026891265745, 355.57347148782605 119.78543102461194, 376.30869995193365 207.76805758376736
           C 413.35957434552364 253.31532231344062, 399.503787910117 326.2516914968128, 334.9488282378048 366.2931007350093
           C 297.3710876323317 431.7542357812863, 244.41435938943525 454.60019777311794, 207.94948543837245 436.93905806104516
           C 117.76665076631052 420.2308792561473, 112.23696049419733 383.716980599913, 92.11515147208789 299.5081039282382
           C 116.77120496721439 242.6097755424814, 164.522347463095 157.91565153744256, 256 34.501460280598934 Z" fill="url(#petalFill-101)" filter="url(#inner-101)"/>
    <path d="M256 34.501460280598934
           C 313.7690371566082 64.09026891265745, 355.57347148782605 119.78543102461194, 376.30869995193365 207.76805758376736
           C 413.35957434552364 253.31532231344062, 399.503787910117 326.2516914968128, 334.9488282378048 366.2931007350093" fill="none" stroke="url(#tealRim-101)" stroke-width="10" stroke-linecap="round" opacity="0.95"/>
    <ellipse cx="203.89090418584996" cy="142.26023653088296" rx="63.08976606184613" ry="42.67095708273475" fill="url(#spec-101)"/>
    <path d="M256 34.501460280598934
           C 313.7690371566082 64.09026891265745, 355.57347148782605 119.78543102461194, 376.30869995193365 207.76805758376736
           C 413.35957434552364 253.31532231344062, 399.503787910117 326.2516914968128, 334.9488282378048 366.2931007350093
           C 297.3710876323317 431.7542357812863, 244.41435938943525 454.60019777311794, 207.94948543837245 436.93905806104516
           C 117.76665076631052 420.2308792561473, 112.23696049419733 383.716980599913, 92.11515147208789 299.5081039282382
           C 116.77120496721439 242.6097755424814, 164.522347463095 157.91565153744256, 256 34.501460280598934 Z" fill="none" stroke="rgba(0,0,0,.06)" stroke-width="2"/>
  </g>
</svg>